<svg xmlns="http://www.w3.org/2000/svg" xmlns:xlink="http://www.w3.org/1999/xlink" width="220" zoomAndPan="magnify" viewBox="0 0 165 82.499998" height="110" preserveAspectRatio="xMidYMid meet" version="1.0"><defs><clipPath id="9c2f07c16e"><path d="M 0.496094 0 L 164.503906 0 L 164.503906 82.003906 L 0.496094 82.003906 Z M 0.496094 0 " clip-rule="nonzero"/></clipPath><clipPath id="eb1e37c6f5"><path d="M 52 32 L 68 32 L 68 53.992188 L 52 53.992188 Z M 52 32 " clip-rule="nonzero"/></clipPath><clipPath id="620a14dd8a"><path d="M 143 32 L 156.300781 32 L 156.300781 49 L 143 49 Z M 143 32 " clip-rule="nonzero"/></clipPath><clipPath id="fb74636f08"><path d="M 8.699219 30 L 18 30 L 18 52 L 8.699219 52 Z M 8.699219 30 " clip-rule="nonzero"/></clipPath><clipPath id="d291d50cb4"><path d="M 8.699219 30 L 18 30 L 18 39 L 8.699219 39 Z M 8.699219 30 " clip-rule="nonzero"/></clipPath><clipPath id="a427a072c5"><path d="M 8.699219 28 L 33 28 L 33 39 L 8.699219 39 Z M 8.699219 28 " clip-rule="nonzero"/></clipPath><clipPath id="44d2c3fe67"><path d="M 10 45 L 33 45 L 33 53.992188 L 10 53.992188 Z M 10 45 " clip-rule="nonzero"/></clipPath><clipPath id="9352b12595"><path d="M 23 45 L 33 45 L 33 53.992188 L 23 53.992188 Z M 23 45 " clip-rule="nonzero"/></clipPath><clipPath id="ec5d271d08"><path d="M 23 30 L 35 30 L 35 53.992188 L 23 53.992188 Z M 23 30 " clip-rule="nonzero"/></clipPath></defs><g clip-path="url(#9c2f07c16e)"><path fill="#ffffff" d="M 0.496094 0 L 164.503906 0 L 164.503906 82.003906 L 0.496094 82.003906 Z M 0.496094 0 " fill-opacity="1" fill-rule="nonzero"/><path fill="#ffffff" d="M 0.496094 0 L 164.503906 0 L 164.503906 82.003906 L 0.496094 82.003906 Z M 0.496094 0 " fill-opacity="1" fill-rule="nonzero"/></g><path fill="#1a1a1a" d="M 115.449219 34.738281 L 112.054688 34.738281 C 111.09375 34.738281 110.429688 34.921875 110.023438 35.324219 C 109.617188 35.710938 109.417969 36.390625 109.417969 37.308594 L 109.417969 48.996094 L 107.386719 48.996094 L 107.386719 37.164062 C 107.40625 36.261719 107.554688 35.289062 108.03125 34.554688 C 108.898438 33.175781 110.558594 32.917969 111.796875 32.917969 L 115.46875 32.917969 L 115.46875 34.738281 Z M 115.449219 34.738281 " fill-opacity="1" fill-rule="nonzero"/><path fill="#1a1a1a" d="M 102.351562 47.15625 C 101.390625 47.15625 100.726562 46.972656 100.320312 46.570312 C 99.914062 46.183594 99.710938 45.542969 99.710938 44.621094 L 99.710938 34.738281 L 103.972656 34.738281 L 103.972656 32.917969 L 99.710938 32.917969 L 99.710938 28.085938 L 97.683594 28.085938 L 97.683594 44.734375 C 97.703125 45.632812 97.847656 46.605469 98.328125 47.34375 C 99.195312 48.71875 100.855469 48.976562 102.09375 48.976562 L 105.761719 48.976562 L 105.761719 47.15625 Z M 102.351562 47.15625 " fill-opacity="1" fill-rule="nonzero"/><path fill="#1a1a1a" d="M 49.164062 28.085938 L 49.164062 32.898438 L 44.902344 32.898438 C 42.320312 32.898438 40.75 33.671875 39.773438 34.609375 C 38.277344 36.058594 38.277344 38.136719 38.277344 38.355469 C 38.277344 38.613281 38.277344 43.28125 38.277344 43.539062 C 38.277344 43.757812 38.277344 45.835938 39.773438 47.285156 C 40.734375 48.222656 42.300781 48.996094 44.902344 48.996094 L 46.800781 48.996094 C 48.039062 48.996094 49.699219 48.71875 50.566406 47.359375 C 51.027344 46.625 51.191406 45.652344 51.210938 44.75 L 51.210938 28.085938 Z M 48.554688 46.589844 C 48.148438 46.972656 47.484375 47.175781 46.527344 47.175781 L 44.679688 47.175781 C 43.003906 47.175781 41.949219 46.699219 41.324219 46.074219 C 40.566406 45.339844 40.308594 44.363281 40.308594 43.613281 L 40.308594 38.300781 C 40.308594 37.546875 40.566406 36.574219 41.324219 35.839844 C 41.96875 35.214844 43.003906 34.738281 44.679688 34.738281 L 49.144531 34.738281 L 49.144531 44.640625 C 49.164062 45.542969 48.960938 46.183594 48.554688 46.589844 Z M 48.554688 46.589844 " fill-opacity="1" fill-rule="nonzero"/><path fill="#1a1a1a" d="M 133.824219 35.839844 C 134.46875 35.214844 135.503906 34.738281 137.179688 34.738281 L 142.070312 34.738281 L 142.070312 32.917969 L 137.382812 32.917969 C 134.800781 32.917969 133.234375 33.691406 132.253906 34.625 C 130.761719 36.078125 130.761719 38.15625 130.761719 38.375 C 130.761719 38.523438 130.761719 43.410156 130.761719 43.558594 C 130.761719 43.777344 130.761719 45.851562 132.253906 47.304688 C 133.214844 48.242188 134.78125 49.015625 137.382812 49.015625 L 142.070312 49.015625 L 142.070312 47.195312 L 137.179688 47.195312 C 135.503906 47.195312 134.449219 46.71875 133.824219 46.09375 C 133.066406 45.355469 132.808594 44.382812 132.808594 43.628906 L 132.808594 38.300781 C 132.808594 37.546875 133.066406 36.554688 133.824219 35.839844 Z M 133.824219 35.839844 " fill-opacity="1" fill-rule="nonzero"/><path fill="#1a1a1a" d="M 95.578125 38.355469 C 95.578125 38.136719 95.578125 36.058594 94.085938 34.609375 C 93.125 33.671875 91.558594 32.898438 88.957031 32.898438 L 84.4375 32.898438 L 84.4375 34.71875 L 89.160156 34.71875 C 90.839844 34.71875 91.890625 35.195312 92.515625 35.820312 C 93.273438 36.554688 93.53125 37.53125 93.53125 38.28125 L 93.53125 39.84375 L 87.058594 39.84375 C 85.820312 39.84375 84.160156 40.121094 83.292969 41.480469 C 82.832031 42.214844 82.667969 43.1875 82.648438 44.089844 L 82.648438 44.734375 C 82.667969 45.632812 82.8125 46.605469 83.292969 47.34375 C 84.160156 48.71875 85.820312 48.976562 87.058594 48.976562 L 91.171875 48.976562 C 92.40625 48.976562 94.066406 48.703125 94.933594 47.34375 C 95.394531 46.605469 95.5625 45.632812 95.578125 44.734375 C 95.578125 44.734375 95.578125 39.402344 95.578125 38.355469 Z M 92.941406 46.589844 C 92.535156 46.972656 91.871094 47.175781 90.914062 47.175781 L 87.332031 47.175781 C 86.375 47.175781 85.710938 46.992188 85.304688 46.589844 C 84.898438 46.183594 84.714844 45.542969 84.714844 44.640625 L 84.714844 44.199219 C 84.714844 43.28125 84.917969 42.636719 85.324219 42.253906 C 85.726562 41.867188 86.394531 41.664062 87.351562 41.664062 L 93.550781 41.664062 L 93.550781 44.640625 C 93.550781 45.542969 93.347656 46.183594 92.941406 46.589844 Z M 92.941406 46.589844 " fill-opacity="1" fill-rule="nonzero"/><path fill="#1a1a1a" d="M 129.15625 38.355469 C 129.15625 38.136719 129.15625 36.058594 127.660156 34.609375 C 126.703125 33.671875 125.132812 32.898438 122.53125 32.898438 L 118.011719 32.898438 L 118.011719 34.71875 L 122.734375 34.71875 C 124.414062 34.71875 125.464844 35.195312 126.09375 35.820312 C 126.851562 36.554688 127.109375 37.53125 127.109375 38.28125 L 127.109375 39.84375 L 120.632812 39.84375 C 119.398438 39.84375 117.738281 40.121094 116.871094 41.480469 C 116.40625 42.214844 116.242188 43.1875 116.222656 44.089844 L 116.222656 44.734375 C 116.242188 45.632812 116.390625 46.605469 116.871094 47.34375 C 117.738281 48.71875 119.398438 48.976562 120.632812 48.976562 L 124.746094 48.976562 C 125.984375 48.976562 127.644531 48.703125 128.511719 47.34375 C 128.972656 46.605469 129.136719 45.632812 129.15625 44.734375 C 129.15625 44.734375 129.15625 39.402344 129.15625 38.355469 Z M 126.519531 46.589844 C 126.113281 46.972656 125.449219 47.175781 124.488281 47.175781 L 120.910156 47.175781 C 119.949219 47.175781 119.285156 46.992188 118.878906 46.589844 C 118.472656 46.183594 118.289062 45.542969 118.289062 44.640625 L 118.289062 44.199219 C 118.289062 43.28125 118.492188 42.636719 118.898438 42.253906 C 119.304688 41.867188 119.96875 41.664062 120.929688 41.664062 L 127.125 41.664062 L 127.125 44.640625 C 127.125 45.542969 126.921875 46.183594 126.519531 46.589844 Z M 126.519531 46.589844 " fill-opacity="1" fill-rule="nonzero"/><g clip-path="url(#eb1e37c6f5)"><path fill="#1a1a1a" d="M 67.335938 32.898438 L 65.214844 32.898438 L 60.066406 46.238281 L 54.917969 32.898438 L 52.816406 32.898438 L 59.015625 48.976562 L 57.152344 53.808594 L 59.273438 53.808594 Z M 67.335938 32.898438 " fill-opacity="1" fill-rule="nonzero"/></g><path fill="#1a1a1a" d="M 81.0625 38.355469 C 81.0625 38.136719 81.0625 36.058594 79.585938 34.609375 C 78.644531 33.691406 77.148438 32.9375 74.714844 32.898438 L 74.492188 32.898438 C 72.058594 32.9375 70.5625 33.691406 69.621094 34.609375 C 68.148438 36.058594 68.148438 38.136719 68.148438 38.355469 C 68.148438 38.613281 68.148438 48.167969 68.148438 48.996094 L 70.175781 48.996094 L 70.175781 38.300781 C 70.175781 37.546875 70.417969 36.574219 71.171875 35.839844 C 71.800781 35.234375 73 34.753906 74.605469 34.738281 C 76.210938 34.753906 77.410156 35.234375 78.035156 35.839844 C 78.773438 36.574219 79.03125 37.546875 79.03125 38.300781 L 79.03125 48.996094 L 81.0625 48.996094 C 81.0625 48.167969 81.0625 38.613281 81.0625 38.355469 Z M 81.0625 38.355469 " fill-opacity="1" fill-rule="nonzero"/><g clip-path="url(#620a14dd8a)"><path fill="#1a1a1a" d="M 154.632812 34.609375 C 153.691406 33.691406 152.199219 32.9375 149.761719 32.898438 L 149.542969 32.898438 C 147.105469 32.9375 145.613281 33.691406 144.671875 34.609375 C 143.195312 36.058594 143.195312 38.136719 143.195312 38.355469 L 143.195312 43.539062 C 143.195312 43.757812 143.195312 45.835938 144.671875 47.285156 C 145.613281 48.207031 147.105469 48.957031 149.542969 48.996094 L 154.339844 48.996094 L 154.339844 47.15625 L 149.652344 47.15625 C 148.046875 47.140625 146.847656 46.660156 146.21875 46.054688 C 145.484375 45.320312 145.222656 44.347656 145.222656 43.59375 L 145.222656 41.699219 L 156.109375 41.699219 L 156.109375 38.355469 C 156.128906 38.136719 156.128906 36.058594 154.632812 34.609375 Z M 145.242188 39.882812 L 145.242188 38.300781 C 145.242188 37.546875 145.484375 36.574219 146.238281 35.839844 C 146.867188 35.234375 148.066406 34.753906 149.671875 34.738281 C 151.277344 34.753906 152.476562 35.234375 153.101562 35.839844 C 153.839844 36.574219 154.097656 37.546875 154.097656 38.300781 L 154.097656 39.882812 Z M 145.242188 39.882812 " fill-opacity="1" fill-rule="nonzero"/></g><g clip-path="url(#fb74636f08)"><path fill="#1496ff" d="M 17.507812 30.234375 C 17.175781 31.980469 16.769531 34.570312 16.546875 37.199219 C 16.160156 41.828125 16.398438 44.933594 16.398438 44.933594 L 9.851562 51.128906 C 9.851562 51.128906 9.351562 47.652344 9.09375 43.742188 C 8.945312 41.316406 8.890625 39.183594 8.890625 37.898438 C 8.890625 37.824219 8.929688 37.75 8.929688 37.675781 C 8.929688 37.585938 9.039062 36.722656 9.886719 35.914062 C 10.808594 35.03125 17.617188 29.71875 17.507812 30.234375 Z M 17.507812 30.234375 " fill-opacity="1" fill-rule="nonzero"/></g><g clip-path="url(#d291d50cb4)"><path fill="#1284ea" d="M 17.507812 30.234375 C 17.175781 31.980469 16.769531 34.570312 16.546875 37.199219 C 16.546875 37.199219 9.296875 36.335938 8.890625 38.082031 C 8.890625 37.988281 9.019531 36.921875 9.867188 36.113281 C 10.792969 35.234375 17.617188 29.71875 17.507812 30.234375 Z M 17.507812 30.234375 " fill-opacity="1" fill-rule="nonzero"/></g><g clip-path="url(#a427a072c5)"><path fill="#b4dc00" d="M 8.890625 37.660156 C 8.890625 37.785156 8.890625 37.914062 8.890625 38.0625 C 8.964844 37.75 9.09375 37.53125 9.351562 37.179688 C 9.886719 36.5 10.753906 36.316406 11.105469 36.28125 C 12.875 36.042969 15.496094 35.765625 18.132812 35.691406 C 22.800781 35.546875 25.882812 35.929688 25.882812 35.929688 L 32.429688 29.738281 C 32.429688 29.738281 29 29.097656 25.089844 28.636719 C 22.523438 28.324219 20.273438 28.160156 19 28.085938 C 18.910156 28.085938 18.003906 27.976562 17.15625 28.785156 C 16.234375 29.664062 11.546875 34.09375 9.664062 35.875 C 8.816406 36.683594 8.890625 37.585938 8.890625 37.660156 Z M 8.890625 37.660156 " fill-opacity="1" fill-rule="nonzero"/></g><g clip-path="url(#44d2c3fe67)"><path fill="#6f2da8" d="M 32.191406 45.578125 C 30.421875 45.816406 27.800781 46.109375 25.164062 46.203125 C 20.496094 46.347656 17.394531 45.964844 17.394531 45.964844 L 10.847656 52.175781 C 10.847656 52.175781 14.316406 52.855469 18.226562 53.296875 C 20.625 53.570312 22.746094 53.71875 24.035156 53.792969 C 24.128906 53.792969 24.277344 53.71875 24.371094 53.71875 C 24.460938 53.71875 25.367188 53.550781 26.214844 52.742188 C 27.136719 51.863281 32.707031 45.523438 32.191406 45.578125 Z M 32.191406 45.578125 " fill-opacity="1" fill-rule="nonzero"/></g><g clip-path="url(#9352b12595)"><path fill="#591f91" d="M 32.191406 45.578125 C 30.421875 45.816406 27.800781 46.109375 25.164062 46.203125 C 25.164062 46.203125 25.660156 53.460938 23.90625 53.773438 C 24 53.773438 25.199219 53.71875 26.046875 52.910156 C 26.96875 52.027344 32.707031 45.523438 32.191406 45.578125 Z M 32.191406 45.578125 " fill-opacity="1" fill-rule="nonzero"/></g><g clip-path="url(#ec5d271d08)"><path fill="#73be28" d="M 24.296875 53.808594 C 24.167969 53.808594 24.035156 53.792969 23.890625 53.792969 C 24.222656 53.734375 24.441406 53.625 24.792969 53.367188 C 25.496094 52.871094 25.714844 52.007812 25.789062 51.660156 C 26.101562 49.914062 26.527344 47.324219 26.730469 44.695312 C 27.097656 40.066406 26.878906 36.980469 26.878906 36.980469 L 33.425781 30.769531 C 33.425781 30.769531 33.90625 34.222656 34.183594 38.136719 C 34.351562 40.691406 34.40625 42.949219 34.421875 44.199219 C 34.421875 44.292969 34.496094 45.191406 33.648438 46 C 32.726562 46.882812 28.039062 51.328125 26.175781 53.113281 C 25.292969 53.917969 24.386719 53.808594 24.296875 53.808594 Z M 24.296875 53.808594 " fill-opacity="1" fill-rule="nonzero"/></g></svg>