<svg xmlns="http://www.w3.org/2000/svg" xmlns:xlink="http://www.w3.org/1999/xlink" width="220" zoomAndPan="magnify" viewBox="0 0 165 82.499998" height="110" preserveAspectRatio="xMidYMid meet" version="1.0"><defs><clipPath id="c7be1da7dd"><path d="M 0.496094 0 L 164.503906 0 L 164.503906 82.003906 L 0.496094 82.003906 Z M 0.496094 0 " clip-rule="nonzero"/></clipPath></defs><g clip-path="url(#c7be1da7dd)"><path fill="#ffffff" d="M 0.496094 0 L 164.503906 0 L 164.503906 82.003906 L 0.496094 82.003906 Z M 0.496094 0 " fill-opacity="1" fill-rule="nonzero"/></g><path fill="#ff5a00" d="M 47.351562 53.238281 C 45.035156 55.558594 40.503906 56.9375 35.226562 56.9375 C 29.949219 56.9375 25.410156 55.558594 23.101562 53.238281 C 20.789062 50.921875 19.394531 46.382812 19.394531 41.101562 C 19.394531 35.816406 20.785156 31.28125 23.097656 28.960938 C 25.414062 26.644531 29.953125 25.253906 35.230469 25.253906 C 40.511719 25.253906 45.039062 26.644531 47.359375 28.960938 C 49.675781 31.28125 51.054688 35.820312 51.054688 41.101562 C 51.054688 46.382812 49.660156 50.917969 47.351562 53.238281 Z M 56.402344 41.097656 C 56.402344 40.402344 56.371094 39.710938 56.300781 39.019531 C 56.234375 38.328125 56.132812 37.640625 55.996094 36.960938 C 55.863281 36.277344 55.691406 35.605469 55.492188 34.941406 C 55.289062 34.277344 55.058594 33.625 54.792969 32.980469 C 54.527344 32.339844 54.230469 31.714844 53.902344 31.101562 C 53.574219 30.488281 53.21875 29.894531 52.835938 29.316406 C 52.449219 28.738281 52.035156 28.179688 51.597656 27.644531 C 51.15625 27.109375 50.691406 26.59375 50.199219 26.101562 C 49.710938 25.613281 49.195312 25.144531 48.660156 24.707031 C 48.125 24.265625 47.566406 23.851562 46.988281 23.464844 C 46.414062 23.078125 45.820312 22.722656 45.207031 22.394531 C 44.59375 22.070312 43.96875 21.773438 43.328125 21.507812 C 42.6875 21.242188 42.035156 21.007812 41.371094 20.804688 C 40.707031 20.605469 40.035156 20.433594 39.355469 20.300781 C 38.675781 20.164062 37.988281 20.0625 37.296875 19.996094 C 36.609375 19.925781 35.914062 19.890625 35.222656 19.890625 C 34.527344 19.890625 33.835938 19.925781 33.144531 19.996094 C 32.457031 20.0625 31.769531 20.164062 31.089844 20.300781 C 30.410156 20.433594 29.738281 20.605469 29.074219 20.804688 C 28.410156 21.007812 27.757812 21.242188 27.117188 21.507812 C 26.476562 21.773438 25.847656 22.070312 25.238281 22.394531 C 24.625 22.722656 24.03125 23.078125 23.453125 23.464844 C 22.878906 23.851562 22.320312 24.265625 21.785156 24.707031 C 21.246094 25.144531 20.734375 25.613281 20.242188 26.101562 C 19.753906 26.59375 19.289062 27.109375 18.847656 27.644531 C 18.40625 28.179688 17.996094 28.738281 17.609375 29.316406 C 17.222656 29.894531 16.867188 30.488281 16.542969 31.101562 C 16.214844 31.714844 15.917969 32.339844 15.652344 32.980469 C 15.386719 33.625 15.152344 34.277344 14.953125 34.941406 C 14.75 35.605469 14.582031 36.277344 14.445312 36.960938 C 14.3125 37.640625 14.210938 38.328125 14.140625 39.019531 C 14.074219 39.710938 14.039062 40.402344 14.039062 41.097656 C 14.039062 41.789062 14.074219 42.484375 14.140625 43.175781 C 14.210938 43.867188 14.3125 44.550781 14.445312 45.234375 C 14.582031 45.914062 14.75 46.585938 14.953125 47.25 C 15.152344 47.917969 15.386719 48.570312 15.652344 49.210938 C 15.917969 49.851562 16.214844 50.480469 16.542969 51.09375 C 16.867188 51.703125 17.222656 52.300781 17.609375 52.875 C 17.996094 53.453125 18.40625 54.011719 18.847656 54.546875 C 19.289062 55.085938 19.753906 55.597656 20.242188 56.089844 C 20.734375 56.582031 21.246094 57.046875 21.785156 57.488281 C 22.320312 57.929688 22.878906 58.339844 23.453125 58.726562 C 24.03125 59.113281 24.625 59.46875 25.238281 59.796875 C 25.847656 60.125 26.476562 60.421875 27.117188 60.6875 C 27.757812 60.953125 28.410156 61.1875 29.074219 61.386719 C 29.738281 61.589844 30.410156 61.757812 31.089844 61.894531 C 31.769531 62.027344 32.457031 62.128906 33.144531 62.199219 C 33.835938 62.265625 34.527344 62.300781 35.222656 62.300781 C 35.914062 62.300781 36.609375 62.265625 37.296875 62.199219 C 37.988281 62.128906 38.675781 62.027344 39.355469 61.894531 C 40.035156 61.757812 40.707031 61.589844 41.371094 61.386719 C 42.035156 61.1875 42.6875 60.953125 43.328125 60.6875 C 43.96875 60.421875 44.59375 60.125 45.207031 59.796875 C 45.820312 59.46875 46.414062 59.113281 46.988281 58.726562 C 47.566406 58.339844 48.125 57.929688 48.660156 57.488281 C 49.195312 57.046875 49.710938 56.582031 50.199219 56.089844 C 50.691406 55.597656 51.15625 55.085938 51.597656 54.546875 C 52.035156 54.011719 52.449219 53.453125 52.835938 52.875 C 53.21875 52.300781 53.574219 51.703125 53.902344 51.09375 C 54.230469 50.480469 54.527344 49.851562 54.792969 49.210938 C 55.058594 48.570312 55.289062 47.917969 55.492188 47.25 C 55.691406 46.585938 55.863281 45.914062 55.996094 45.234375 C 56.132812 44.550781 56.234375 43.867188 56.300781 43.175781 C 56.371094 42.484375 56.402344 41.789062 56.402344 41.097656 Z M 56.402344 41.097656 " fill-opacity="1" fill-rule="nonzero"/><path fill="#ff5a00" d="M 39.308594 38.132812 L 39.308594 43.929688 C 39.308594 44.085938 39.28125 44.238281 39.21875 44.386719 C 39.160156 44.535156 39.074219 44.664062 38.960938 44.777344 C 38.851562 44.890625 38.722656 44.980469 38.574219 45.039062 C 38.429688 45.101562 38.277344 45.132812 38.117188 45.136719 L 32.308594 45.136719 C 32.148438 45.136719 31.996094 45.105469 31.847656 45.046875 C 31.699219 44.984375 31.570312 44.898438 31.457031 44.785156 C 31.34375 44.671875 31.257812 44.539062 31.195312 44.390625 C 31.136719 44.242188 31.109375 44.089844 31.109375 43.929688 L 31.109375 38.132812 C 31.109375 37.972656 31.140625 37.816406 31.199219 37.671875 C 31.261719 37.523438 31.347656 37.390625 31.460938 37.277344 C 31.570312 37.164062 31.703125 37.078125 31.847656 37.015625 C 31.996094 36.953125 32.148438 36.921875 32.308594 36.921875 L 38.109375 36.921875 C 38.269531 36.925781 38.421875 36.953125 38.570312 37.015625 C 38.71875 37.078125 38.847656 37.164062 38.960938 37.277344 C 39.070312 37.390625 39.160156 37.523438 39.21875 37.671875 C 39.28125 37.820312 39.308594 37.972656 39.308594 38.132812 Z M 39.308594 38.132812 " fill-opacity="1" fill-rule="nonzero"/><path fill="#ff5a00" d="M 45.136719 31.089844 C 43.496094 29.445312 39.597656 28.382812 35.207031 28.382812 C 30.816406 28.382812 26.917969 29.445312 25.277344 31.089844 C 23.632812 32.734375 22.574219 36.640625 22.574219 41.039062 C 22.574219 45.4375 23.628906 49.34375 25.277344 50.988281 C 26.925781 52.632812 30.816406 53.695312 35.207031 53.695312 C 39.597656 53.695312 43.496094 52.628906 45.136719 50.988281 C 46.777344 49.347656 47.84375 45.4375 47.84375 41.039062 C 47.84375 36.640625 46.789062 32.726562 45.136719 31.089844 Z M 41.304688 47.101562 C 40.960938 47.441406 39.914062 48.488281 35.171875 48.488281 C 30.429688 48.488281 29.382812 47.445312 29.042969 47.101562 C 28.703125 46.753906 27.65625 45.710938 27.65625 40.964844 C 27.65625 36.214844 28.695312 35.167969 29.042969 34.828125 C 29.386719 34.484375 30.421875 33.445312 35.171875 33.445312 C 39.921875 33.445312 40.953125 34.480469 41.304688 34.828125 C 41.652344 35.171875 42.679688 36.214844 42.679688 40.964844 C 42.679688 45.710938 41.640625 46.75 41.304688 47.09375 Z M 41.304688 47.101562 " fill-opacity="1" fill-rule="nonzero"/><path fill="#373a3b" d="M 81.519531 34.578125 C 79.761719 34.578125 78.339844 35.15625 77.261719 36.3125 L 76.683594 34.894531 L 73.015625 34.894531 L 73.015625 47.902344 L 77.632812 47.902344 L 77.632812 40.9375 C 77.632812 39.386719 78.605469 38.363281 80.046875 38.363281 C 80.324219 38.355469 80.589844 38.40625 80.84375 38.511719 C 81.097656 38.613281 81.320312 38.765625 81.515625 38.960938 C 81.707031 39.15625 81.855469 39.382812 81.953125 39.640625 C 82.054688 39.898438 82.101562 40.164062 82.089844 40.4375 L 82.089844 47.902344 L 86.710938 47.902344 L 86.710938 39.675781 C 86.710938 38.179688 86.238281 36.972656 85.265625 36.023438 C 84.300781 35.050781 83.066406 34.578125 81.519531 34.578125 Z M 81.519531 34.578125 " fill-opacity="1" fill-rule="nonzero"/><path fill="#373a3b" d="M 65.902344 28.882812 L 70.523438 28.882812 L 70.523438 33.507812 L 65.902344 33.507812 Z M 65.902344 28.882812 " fill-opacity="1" fill-rule="nonzero"/><path fill="#373a3b" d="M 65.902344 34.894531 L 70.523438 34.894531 L 70.523438 47.902344 L 65.902344 47.902344 Z M 65.902344 34.894531 " fill-opacity="1" fill-rule="nonzero"/><path fill="#373a3b" d="M 149.398438 36.496094 C 148.269531 35.210938 146.824219 34.582031 145.070312 34.582031 C 143.488281 34.582031 142.207031 35.078125 141.207031 36.101562 L 140.625 34.894531 L 136.957031 34.894531 L 136.957031 53.367188 L 141.570312 53.367188 L 141.570312 46.984375 C 142.585938 47.816406 143.753906 48.226562 145.066406 48.21875 C 146.824219 48.21875 148.265625 47.582031 149.398438 46.328125 C 150.519531 45.035156 151.101562 43.40625 151.101562 41.410156 C 151.101562 39.386719 150.515625 37.757812 149.398438 36.496094 Z M 143.832031 44.585938 C 142.441406 44.585938 141.496094 43.539062 141.496094 42.09375 L 141.496094 40.730469 C 141.496094 39.261719 142.441406 38.210938 143.832031 38.210938 C 145.332031 38.210938 146.40625 39.523438 146.40625 41.414062 C 146.40625 43.273438 145.332031 44.585938 143.832031 44.585938 Z M 143.832031 44.585938 " fill-opacity="1" fill-rule="nonzero"/><path fill="#373a3b" d="M 132.152344 28.824219 C 130.65625 28.824219 129.527344 29.925781 129.527344 31.480469 C 129.519531 31.828125 129.578125 32.167969 129.710938 32.492188 C 129.839844 32.820312 130.03125 33.105469 130.277344 33.355469 C 130.527344 33.601562 130.8125 33.792969 131.136719 33.921875 C 131.464844 34.050781 131.800781 34.113281 132.152344 34.105469 C 133.726562 34.105469 134.800781 32.976562 134.800781 31.480469 C 134.800781 29.925781 133.726562 28.824219 132.152344 28.824219 Z M 132.152344 28.824219 " fill-opacity="1" fill-rule="nonzero"/><path fill="#373a3b" d="M 129.839844 34.894531 L 134.460938 34.894531 L 134.460938 47.902344 L 129.839844 47.902344 Z M 129.839844 34.894531 " fill-opacity="1" fill-rule="nonzero"/><path fill="#373a3b" d="M 110.578125 36.496094 C 109.214844 35.210938 107.425781 34.582031 105.253906 34.582031 C 103.078125 34.582031 101.3125 35.210938 99.921875 36.496094 C 98.527344 37.78125 97.84375 39.414062 97.84375 41.410156 C 97.84375 43.40625 98.527344 45.035156 99.921875 46.328125 C 101.3125 47.582031 103.074219 48.21875 105.253906 48.21875 C 107.433594 48.21875 109.210938 47.582031 110.578125 46.328125 C 111.96875 45.035156 112.652344 43.40625 112.652344 41.410156 C 112.652344 39.386719 111.96875 37.757812 110.578125 36.496094 Z M 105.253906 44.640625 C 103.671875 44.640625 102.570312 43.300781 102.570312 41.402344 C 102.570312 39.484375 103.671875 38.144531 105.253906 38.144531 C 106.832031 38.144531 107.957031 39.484375 107.957031 41.402344 C 107.957031 43.300781 106.824219 44.640625 105.253906 44.640625 Z M 105.253906 44.640625 " fill-opacity="1" fill-rule="nonzero"/><path fill="#373a3b" d="M 95.953125 32.765625 C 96.46875 32.777344 96.976562 32.828125 97.480469 32.925781 L 98.054688 29.515625 C 96.996094 29.230469 95.917969 29.089844 94.820312 29.09375 C 93.375 29.09375 92.195312 29.515625 91.277344 30.355469 C 90.382812 31.195312 89.9375 32.300781 89.9375 33.691406 L 89.9375 34.902344 L 87.765625 34.902344 L 87.765625 38.394531 L 89.945312 38.394531 L 89.945312 47.910156 L 94.566406 47.910156 L 94.566406 38.394531 L 97.242188 38.394531 L 97.242188 34.902344 L 94.566406 34.902344 L 94.566406 34.160156 C 94.566406 33.289062 95.113281 32.765625 95.953125 32.765625 Z M 95.953125 32.765625 " fill-opacity="1" fill-rule="nonzero"/><path fill="#373a3b" d="M 126.453125 36.496094 C 125.328125 35.210938 123.878906 34.582031 122.121094 34.582031 C 120.808594 34.5625 119.644531 34.972656 118.632812 35.8125 L 118.632812 29.402344 L 114.011719 29.402344 L 114.011719 47.902344 L 117.6875 47.902344 L 118.265625 46.691406 C 119.261719 47.714844 120.550781 48.226562 122.121094 48.226562 C 123.878906 48.226562 125.328125 47.589844 126.453125 46.335938 C 127.582031 45.042969 128.15625 43.414062 128.15625 41.417969 C 128.164062 39.386719 127.582031 37.757812 126.453125 36.496094 Z M 120.894531 44.585938 C 119.5 44.585938 118.554688 43.539062 118.554688 42.09375 L 118.554688 40.730469 C 118.554688 39.261719 119.5 38.210938 120.894531 38.210938 C 122.382812 38.210938 123.460938 39.523438 123.460938 41.414062 C 123.460938 43.273438 122.382812 44.585938 120.894531 44.585938 Z M 120.894531 44.585938 " fill-opacity="1" fill-rule="nonzero"/></svg>