<svg xmlns="http://www.w3.org/2000/svg" xmlns:xlink="http://www.w3.org/1999/xlink" width="220" zoomAndPan="magnify" viewBox="0 0 165 82.499998" height="110" preserveAspectRatio="xMidYMid meet" version="1.0"><defs><clipPath id="a21308fad2"><path d="M 0.496094 0 L 164.503906 0 L 164.503906 82.003906 L 0.496094 82.003906 Z M 0.496094 0 " clip-rule="nonzero"/></clipPath></defs><g clip-path="url(#a21308fad2)"><path fill="#ffffff" d="M 0.496094 0 L 164.503906 0 L 164.503906 82.003906 L 0.496094 82.003906 Z M 0.496094 0 " fill-opacity="1" fill-rule="nonzero"/><path fill="#ffffff" d="M 0.496094 0 L 164.503906 0 L 164.503906 82.003906 L 0.496094 82.003906 Z M 0.496094 0 " fill-opacity="1" fill-rule="nonzero"/></g><path fill="#ff5227" d="M 108.53125 40.320312 L 108.53125 45.753906 L 105.714844 45.753906 L 105.714844 40.359375 C 105.714844 39.300781 105.300781 38.460938 104.136719 38.460938 C 102.972656 38.460938 102.410156 39.246094 102.410156 40.359375 L 102.410156 45.753906 L 99.578125 45.753906 L 99.578125 36.019531 L 102.355469 36.019531 L 102.355469 36.882812 L 102.394531 36.882812 C 103.050781 36.195312 103.964844 35.800781 104.972656 35.800781 C 106.136719 35.800781 107.132812 36.171875 107.648438 36.9375 C 108.226562 36.179688 109.300781 35.800781 110.507812 35.800781 C 112.886719 35.800781 114.6875 37.296875 114.6875 39.683594 L 114.6875 45.753906 L 111.855469 45.753906 L 111.855469 40.320312 C 111.855469 39.265625 111.4375 38.460938 110.277344 38.460938 C 109.132812 38.460938 108.53125 39.210938 108.53125 40.320312 M 59.152344 40.320312 L 59.152344 45.753906 L 56.339844 45.753906 L 56.339844 40.359375 C 56.339844 39.300781 55.921875 38.460938 54.757812 38.460938 C 53.59375 38.460938 53.03125 39.246094 53.03125 40.359375 L 53.03125 45.753906 L 50.199219 45.753906 L 50.199219 36.019531 L 52.976562 36.019531 L 52.976562 36.882812 L 53.015625 36.882812 C 53.671875 36.195312 54.585938 35.800781 55.59375 35.800781 C 56.757812 35.800781 57.753906 36.171875 58.269531 36.9375 C 58.847656 36.179688 59.921875 35.800781 61.128906 35.800781 C 63.507812 35.800781 65.308594 37.296875 65.308594 39.683594 L 65.308594 45.753906 L 62.476562 45.753906 L 62.476562 40.320312 C 62.476562 39.265625 62.058594 38.460938 60.898438 38.460938 C 59.753906 38.460938 59.152344 39.210938 59.152344 40.320312 M 151.363281 40.359375 C 151.363281 39.300781 150.835938 38.460938 149.675781 38.460938 C 148.457031 38.460938 147.929688 39.390625 147.929688 40.320312 L 147.929688 45.753906 L 145.097656 45.753906 L 145.097656 30.917969 L 147.929688 30.917969 L 147.929688 37.167969 L 147.949219 37.167969 C 148.765625 36 150.109375 35.835938 150.621094 35.835938 C 153.070312 35.835938 154.179688 37.695312 154.179688 39.703125 L 154.179688 45.753906 L 151.363281 45.753906 Z M 134.195312 40.90625 C 134.195312 38.023438 136.5 35.800781 139.480469 35.800781 C 141.496094 35.800781 143.695312 36.894531 144.183594 39.117188 L 141.605469 39.902344 C 141.386719 39.171875 140.644531 38.40625 139.425781 38.40625 C 138.171875 38.40625 137.101562 39.320312 137.101562 40.867188 C 137.101562 42.308594 138.046875 43.347656 139.445312 43.347656 C 140.679688 43.347656 141.40625 42.582031 141.679688 41.832031 L 144.257812 42.617188 C 143.640625 44.859375 141.496094 45.972656 139.40625 45.972656 C 136.355469 45.972656 134.195312 43.800781 134.195312 40.90625 M 131.617188 42.179688 C 131.617188 42.925781 132.035156 43.417969 132.980469 43.417969 C 133.398438 43.417969 133.46875 43.402344 133.976562 43.347656 L 133.976562 45.660156 C 133.324219 45.863281 132.617188 45.878906 132.289062 45.878906 C 129.292969 45.878906 128.78125 43.910156 128.78125 42.324219 L 128.78125 38.480469 L 126.894531 38.480469 L 126.894531 36.019531 L 128.820312 36.019531 L 128.820312 32.976562 L 131.617188 32.976562 L 131.617188 36.019531 L 134.015625 36.019531 L 134.015625 38.480469 L 131.617188 38.480469 Z M 120.871094 38.40625 C 119.542969 38.40625 118.472656 39.410156 118.472656 40.867188 C 118.472656 42.34375 119.542969 43.363281 120.871094 43.363281 C 122.195312 43.363281 123.269531 42.34375 123.269531 40.867188 C 123.269531 39.410156 122.195312 38.40625 120.871094 38.40625 M 120.214844 45.933594 C 117.402344 45.933594 115.601562 43.492188 115.601562 40.867188 C 115.601562 38.40625 117.457031 35.835938 120.253906 35.835938 C 121.148438 35.835938 122.433594 36.011719 123.175781 36.738281 L 123.195312 36.738281 L 123.195312 36.019531 L 126.011719 36.019531 L 126.011719 45.753906 L 123.195312 45.753906 L 123.195312 45.035156 L 123.175781 45.035156 C 122.332031 45.886719 120.652344 45.933594 120.214844 45.933594 M 91.992188 45.753906 L 88.851562 45.753906 L 92.335938 40.851562 L 88.957031 36.019531 L 92.136719 36.019531 L 93.878906 38.773438 L 95.679688 36.019531 L 98.804688 36.019531 L 95.386719 40.796875 L 98.894531 45.753906 L 95.714844 45.753906 L 93.863281 42.890625 Z M 85.3125 45.753906 L 88.164062 45.753906 L 88.164062 36.019531 L 85.3125 36.019531 Z M 86.710938 30.863281 C 87.710938 30.863281 88.492188 31.644531 88.492188 32.628906 C 88.492188 33.597656 87.710938 34.378906 86.710938 34.378906 C 85.769531 34.378906 84.96875 33.597656 84.96875 32.628906 C 84.96875 31.644531 85.769531 30.863281 86.710938 30.863281 M 76.226562 43.089844 L 78.699219 42.4375 C 78.824219 43.144531 79.371094 43.765625 80.3125 43.765625 C 81.148438 43.765625 81.476562 43.292969 81.476562 42.925781 C 81.476562 42.308594 80.949219 42.125 79.933594 41.980469 C 78.097656 41.726562 76.425781 41.105469 76.425781 38.898438 C 76.425781 37.132812 78.207031 35.785156 80.257812 35.785156 C 82.785156 35.785156 83.890625 37.40625 84.089844 38.5 L 81.640625 39.117188 C 81.496094 38.460938 81.039062 37.96875 80.222656 37.96875 C 79.53125 37.96875 79.113281 38.335938 79.113281 38.773438 C 79.113281 39.355469 79.585938 39.519531 80.621094 39.628906 C 82.492188 39.847656 84.253906 40.503906 84.253906 42.746094 C 84.253906 44.402344 82.964844 45.972656 80.3125 45.972656 C 77.460938 45.972656 76.390625 44.128906 76.226562 43.089844 M 70.925781 45.953125 C 68.507812 45.953125 66.382812 44.398438 66.382812 41.453125 L 66.382812 36.019531 L 69.21875 36.019531 L 69.21875 41.449219 C 69.21875 42.527344 69.742188 43.308594 70.925781 43.308594 C 72.105469 43.308594 72.632812 42.527344 72.632812 41.449219 L 72.632812 36.019531 L 75.464844 36.019531 L 75.464844 41.453125 C 75.464844 44.398438 73.339844 45.953125 70.925781 45.953125 M 40.261719 34.417969 L 34.316406 39.019531 L 29.171875 35.019531 L 36.917969 29.167969 C 37.5625 28.675781 38.382812 28.601562 39.101562 28.964844 C 39.828125 29.328125 40.261719 30.027344 40.261719 30.835938 Z M 40.261719 43.640625 L 36.628906 40.816406 L 40.261719 38.007812 Z M 40.261719 50.875 C 40.261719 51.6875 39.824219 52.390625 39.097656 52.75 C 38.367188 53.109375 37.550781 53.03125 36.90625 52.535156 L 29.164062 46.601562 L 29.789062 46.117188 L 34.316406 42.613281 L 40.261719 47.238281 Z M 26.839844 44.8125 L 26.402344 44.472656 L 21.679688 40.8125 L 26.839844 36.800781 L 32.003906 40.8125 L 27.148438 44.574219 Z M 16.773438 52.535156 C 16.132812 53.03125 15.3125 53.109375 14.582031 52.75 C 13.855469 52.390625 13.421875 51.6875 13.421875 50.875 L 13.421875 47.238281 L 19.367188 42.613281 L 23.847656 46.085938 L 24.515625 46.601562 Z M 13.421875 38.007812 L 17.050781 40.816406 L 13.421875 43.640625 Z M 13.421875 30.835938 C 13.421875 30.027344 13.855469 29.328125 14.578125 28.964844 C 14.878906 28.8125 15.199219 28.738281 15.515625 28.738281 C 15.957031 28.738281 16.390625 28.882812 16.765625 29.167969 L 24.507812 35.019531 L 19.363281 39.019531 L 13.421875 34.417969 Z M 40.367188 26.421875 C 38.6875 25.582031 36.710938 25.761719 35.214844 26.898438 L 26.839844 33.226562 L 18.46875 26.898438 C 16.96875 25.761719 14.992188 25.582031 13.316406 26.421875 C 11.636719 27.261719 10.59375 28.953125 10.59375 30.835938 L 10.59375 50.875 C 10.59375 52.765625 11.640625 54.460938 13.332031 55.296875 C 14.027344 55.644531 14.773438 55.8125 15.515625 55.8125 C 16.570312 55.8125 17.617188 55.46875 18.496094 54.796875 L 26.839844 48.394531 L 35.1875 54.796875 C 36.066406 55.46875 37.113281 55.8125 38.167969 55.8125 C 38.90625 55.8125 39.652344 55.644531 40.351562 55.296875 C 42.042969 54.460938 43.089844 52.765625 43.089844 50.875 L 43.089844 30.835938 C 43.089844 28.953125 42.046875 27.261719 40.367188 26.421875 " fill-opacity="1" fill-rule="nonzero"/></svg>