<svg xmlns="http://www.w3.org/2000/svg" xmlns:xlink="http://www.w3.org/1999/xlink" width="220" zoomAndPan="magnify" viewBox="0 0 165 82.499998" height="110" preserveAspectRatio="xMidYMid meet" version="1.0"><defs><clipPath id="0985542429"><path d="M 0.496094 0 L 164.503906 0 L 164.503906 82.003906 L 0.496094 82.003906 Z M 0.496094 0 " clip-rule="nonzero"/></clipPath><clipPath id="f5d761d654"><path d="M 9 24.394531 L 43 24.394531 L 43 57.941406 L 9 57.941406 Z M 9 24.394531 " clip-rule="nonzero"/></clipPath><clipPath id="2bc73c1704"><path d="M 26.042969 57.941406 C 35.214844 57.941406 42.648438 50.433594 42.648438 41.167969 C 42.648438 31.90625 35.214844 24.394531 26.042969 24.394531 C 16.875 24.394531 9.441406 31.90625 9.441406 41.167969 C 9.441406 50.433594 16.875 57.941406 26.042969 57.941406 Z M 26.042969 57.941406 " clip-rule="evenodd"/></clipPath><linearGradient x1="0.699" gradientTransform="matrix(0.332089, 0, 0, 0.335467, 9.440443, 24.395892)" y1="0.000000169908" x2="0.699" gradientUnits="userSpaceOnUse" y2="99.999993" id="d811d7cff7"><stop stop-opacity="1" stop-color="rgb(100%, 39.99939%, 19.999695%)" offset="0"/><stop stop-opacity="1" stop-color="rgb(100%, 39.862061%, 20.123291%)" offset="0.0078125"/><stop stop-opacity="1" stop-color="rgb(100%, 39.588928%, 20.372009%)" offset="0.015625"/><stop stop-opacity="1" stop-color="rgb(100%, 39.315796%, 20.620728%)" offset="0.0234375"/><stop stop-opacity="1" stop-color="rgb(100%, 39.041138%, 20.869446%)" offset="0.03125"/><stop stop-opacity="1" stop-color="rgb(100%, 38.768005%, 21.118164%)" offset="0.0390625"/><stop stop-opacity="1" stop-color="rgb(100%, 38.494873%, 21.366882%)" offset="0.046875"/><stop stop-opacity="1" stop-color="rgb(100%, 38.221741%, 21.615601%)" offset="0.0546875"/><stop stop-opacity="1" stop-color="rgb(100%, 37.948608%, 21.864319%)" offset="0.0625"/><stop stop-opacity="1" stop-color="rgb(100%, 37.675476%, 22.113037%)" offset="0.0703125"/><stop stop-opacity="1" stop-color="rgb(100%, 37.402344%, 22.361755%)" offset="0.078125"/><stop stop-opacity="1" stop-color="rgb(100%, 37.127686%, 22.610474%)" offset="0.0859375"/><stop stop-opacity="1" stop-color="rgb(100%, 36.854553%, 22.859192%)" offset="0.09375"/><stop stop-opacity="1" stop-color="rgb(100%, 36.581421%, 23.10791%)" offset="0.101562"/><stop stop-opacity="1" stop-color="rgb(100%, 36.308289%, 23.356628%)" offset="0.109375"/><stop stop-opacity="1" stop-color="rgb(100%, 36.035156%, 23.605347%)" offset="0.117188"/><stop stop-opacity="1" stop-color="rgb(100%, 35.762024%, 23.854065%)" offset="0.125"/><stop stop-opacity="1" stop-color="rgb(100%, 35.488892%, 24.102783%)" offset="0.132813"/><stop stop-opacity="1" stop-color="rgb(100%, 35.214233%, 24.353027%)" offset="0.140625"/><stop stop-opacity="1" stop-color="rgb(100%, 34.941101%, 24.601746%)" offset="0.148438"/><stop stop-opacity="1" stop-color="rgb(100%, 34.667969%, 24.850464%)" offset="0.15625"/><stop stop-opacity="1" stop-color="rgb(100%, 34.394836%, 25.099182%)" offset="0.164063"/><stop stop-opacity="1" stop-color="rgb(100%, 34.121704%, 25.3479%)" offset="0.171875"/><stop stop-opacity="1" stop-color="rgb(100%, 33.848572%, 25.596619%)" offset="0.179688"/><stop stop-opacity="1" stop-color="rgb(100%, 33.575439%, 25.845337%)" offset="0.1875"/><stop stop-opacity="1" stop-color="rgb(100%, 33.300781%, 26.094055%)" offset="0.195313"/><stop stop-opacity="1" stop-color="rgb(100%, 33.027649%, 26.342773%)" offset="0.203125"/><stop stop-opacity="1" stop-color="rgb(100%, 32.754517%, 26.591492%)" offset="0.210938"/><stop stop-opacity="1" stop-color="rgb(100%, 32.481384%, 26.84021%)" offset="0.21875"/><stop stop-opacity="1" stop-color="rgb(100%, 32.208252%, 27.088928%)" offset="0.226563"/><stop stop-opacity="1" stop-color="rgb(100%, 31.93512%, 27.337646%)" offset="0.234375"/><stop stop-opacity="1" stop-color="rgb(100%, 31.661987%, 27.586365%)" offset="0.242188"/><stop stop-opacity="1" stop-color="rgb(100%, 31.387329%, 27.835083%)" offset="0.25"/><stop stop-opacity="1" stop-color="rgb(100%, 31.114197%, 28.083801%)" offset="0.257812"/><stop stop-opacity="1" stop-color="rgb(100%, 30.841064%, 28.33252%)" offset="0.265625"/><stop stop-opacity="1" stop-color="rgb(100%, 30.567932%, 28.581238%)" offset="0.273438"/><stop stop-opacity="1" stop-color="rgb(100%, 30.2948%, 28.829956%)" offset="0.28125"/><stop stop-opacity="1" stop-color="rgb(100%, 30.021667%, 29.078674%)" offset="0.289063"/><stop stop-opacity="1" stop-color="rgb(100%, 29.748535%, 29.327393%)" offset="0.296875"/><stop stop-opacity="1" stop-color="rgb(100%, 29.473877%, 29.576111%)" offset="0.304688"/><stop stop-opacity="1" stop-color="rgb(100%, 29.200745%, 29.826355%)" offset="0.3125"/><stop stop-opacity="1" stop-color="rgb(100%, 28.927612%, 30.075073%)" offset="0.320313"/><stop stop-opacity="1" stop-color="rgb(100%, 28.65448%, 30.323792%)" offset="0.328125"/><stop stop-opacity="1" stop-color="rgb(100%, 28.381348%, 30.57251%)" offset="0.335938"/><stop stop-opacity="1" stop-color="rgb(100%, 28.108215%, 30.821228%)" offset="0.34375"/><stop stop-opacity="1" stop-color="rgb(100%, 27.835083%, 31.069946%)" offset="0.351562"/><stop stop-opacity="1" stop-color="rgb(100%, 27.560425%, 31.318665%)" offset="0.359375"/><stop stop-opacity="1" stop-color="rgb(100%, 27.287292%, 31.567383%)" offset="0.367188"/><stop stop-opacity="1" stop-color="rgb(100%, 27.01416%, 31.816101%)" offset="0.375"/><stop stop-opacity="1" stop-color="rgb(100%, 26.741028%, 32.064819%)" offset="0.382813"/><stop stop-opacity="1" stop-color="rgb(100%, 26.467896%, 32.313538%)" offset="0.390625"/><stop stop-opacity="1" stop-color="rgb(100%, 26.194763%, 32.562256%)" offset="0.398438"/><stop stop-opacity="1" stop-color="rgb(100%, 25.921631%, 32.810974%)" offset="0.40625"/><stop stop-opacity="1" stop-color="rgb(100%, 25.646973%, 33.059692%)" offset="0.414063"/><stop stop-opacity="1" stop-color="rgb(100%, 25.37384%, 33.308411%)" offset="0.421875"/><stop stop-opacity="1" stop-color="rgb(100%, 25.100708%, 33.557129%)" offset="0.429688"/><stop stop-opacity="1" stop-color="rgb(100%, 24.827576%, 33.805847%)" offset="0.4375"/><stop stop-opacity="1" stop-color="rgb(100%, 24.554443%, 34.054565%)" offset="0.445313"/><stop stop-opacity="1" stop-color="rgb(100%, 24.281311%, 34.303284%)" offset="0.453125"/><stop stop-opacity="1" stop-color="rgb(100%, 24.008179%, 34.552002%)" offset="0.460938"/><stop stop-opacity="1" stop-color="rgb(100%, 23.733521%, 34.80072%)" offset="0.46875"/><stop stop-opacity="1" stop-color="rgb(100%, 23.460388%, 35.049438%)" offset="0.476563"/><stop stop-opacity="1" stop-color="rgb(100%, 23.187256%, 35.299683%)" offset="0.484375"/><stop stop-opacity="1" stop-color="rgb(100%, 22.914124%, 35.548401%)" offset="0.492188"/><stop stop-opacity="1" stop-color="rgb(100%, 22.640991%, 35.797119%)" offset="0.5"/><stop stop-opacity="1" stop-color="rgb(100%, 22.367859%, 36.045837%)" offset="0.507813"/><stop stop-opacity="1" stop-color="rgb(100%, 22.094727%, 36.294556%)" offset="0.515625"/><stop stop-opacity="1" stop-color="rgb(100%, 21.820068%, 36.543274%)" offset="0.523438"/><stop stop-opacity="1" stop-color="rgb(100%, 21.546936%, 36.791992%)" offset="0.53125"/><stop stop-opacity="1" stop-color="rgb(100%, 21.273804%, 37.04071%)" offset="0.539063"/><stop stop-opacity="1" stop-color="rgb(100%, 21.000671%, 37.289429%)" offset="0.546875"/><stop stop-opacity="1" stop-color="rgb(100%, 20.727539%, 37.538147%)" offset="0.554688"/><stop stop-opacity="1" stop-color="rgb(100%, 20.454407%, 37.786865%)" offset="0.5625"/><stop stop-opacity="1" stop-color="rgb(100%, 20.181274%, 38.035583%)" offset="0.570312"/><stop stop-opacity="1" stop-color="rgb(100%, 19.906616%, 38.284302%)" offset="0.578125"/><stop stop-opacity="1" stop-color="rgb(100%, 19.633484%, 38.53302%)" offset="0.585938"/><stop stop-opacity="1" stop-color="rgb(100%, 19.360352%, 38.781738%)" offset="0.59375"/><stop stop-opacity="1" stop-color="rgb(100%, 19.087219%, 39.030457%)" offset="0.601563"/><stop stop-opacity="1" stop-color="rgb(100%, 18.814087%, 39.279175%)" offset="0.609375"/><stop stop-opacity="1" stop-color="rgb(100%, 18.540955%, 39.527893%)" offset="0.617188"/><stop stop-opacity="1" stop-color="rgb(100%, 18.267822%, 39.776611%)" offset="0.625"/><stop stop-opacity="1" stop-color="rgb(100%, 17.993164%, 40.02533%)" offset="0.632813"/><stop stop-opacity="1" stop-color="rgb(100%, 17.720032%, 40.274048%)" offset="0.640625"/><stop stop-opacity="1" stop-color="rgb(100%, 17.446899%, 40.522766%)" offset="0.648438"/><stop stop-opacity="1" stop-color="rgb(100%, 17.173767%, 40.77301%)" offset="0.65625"/><stop stop-opacity="1" stop-color="rgb(100%, 16.900635%, 41.021729%)" offset="0.664062"/><stop stop-opacity="1" stop-color="rgb(100%, 16.627502%, 41.270447%)" offset="0.671875"/><stop stop-opacity="1" stop-color="rgb(100%, 16.35437%, 41.519165%)" offset="0.679688"/><stop stop-opacity="1" stop-color="rgb(100%, 16.079712%, 41.767883%)" offset="0.6875"/><stop stop-opacity="1" stop-color="rgb(100%, 15.80658%, 42.016602%)" offset="0.695313"/><stop stop-opacity="1" stop-color="rgb(100%, 15.533447%, 42.26532%)" offset="0.703125"/><stop stop-opacity="1" stop-color="rgb(100%, 15.260315%, 42.514038%)" offset="0.710938"/><stop stop-opacity="1" stop-color="rgb(100%, 14.987183%, 42.762756%)" offset="0.71875"/><stop stop-opacity="1" stop-color="rgb(100%, 14.71405%, 43.011475%)" offset="0.726563"/><stop stop-opacity="1" stop-color="rgb(100%, 14.440918%, 43.260193%)" offset="0.734375"/><stop stop-opacity="1" stop-color="rgb(100%, 14.16626%, 43.508911%)" offset="0.742188"/><stop stop-opacity="1" stop-color="rgb(100%, 13.893127%, 43.757629%)" offset="0.75"/><stop stop-opacity="1" stop-color="rgb(100%, 13.619995%, 44.006348%)" offset="0.757812"/><stop stop-opacity="1" stop-color="rgb(100%, 13.346863%, 44.255066%)" offset="0.765625"/><stop stop-opacity="1" stop-color="rgb(100%, 13.07373%, 44.503784%)" offset="0.773438"/><stop stop-opacity="1" stop-color="rgb(100%, 12.800598%, 44.752502%)" offset="0.78125"/><stop stop-opacity="1" stop-color="rgb(100%, 12.527466%, 45.001221%)" offset="0.789063"/><stop stop-opacity="1" stop-color="rgb(100%, 12.252808%, 45.249939%)" offset="0.796875"/><stop stop-opacity="1" stop-color="rgb(100%, 11.979675%, 45.498657%)" offset="0.804688"/><stop stop-opacity="1" stop-color="rgb(100%, 11.706543%, 45.747375%)" offset="0.8125"/><stop stop-opacity="1" stop-color="rgb(100%, 11.433411%, 45.99762%)" offset="0.820313"/><stop stop-opacity="1" stop-color="rgb(100%, 11.160278%, 46.246338%)" offset="0.828125"/><stop stop-opacity="1" stop-color="rgb(100%, 10.887146%, 46.495056%)" offset="0.835938"/><stop stop-opacity="1" stop-color="rgb(100%, 10.614014%, 46.743774%)" offset="0.84375"/><stop stop-opacity="1" stop-color="rgb(100%, 10.339355%, 46.992493%)" offset="0.851562"/><stop stop-opacity="1" stop-color="rgb(100%, 10.066223%, 47.241211%)" offset="0.859375"/><stop stop-opacity="1" stop-color="rgb(100%, 9.793091%, 47.489929%)" offset="0.867188"/><stop stop-opacity="1" stop-color="rgb(100%, 9.519958%, 47.738647%)" offset="0.875"/><stop stop-opacity="1" stop-color="rgb(100%, 9.246826%, 47.987366%)" offset="0.882813"/><stop stop-opacity="1" stop-color="rgb(100%, 8.973694%, 48.236084%)" offset="0.890625"/><stop stop-opacity="1" stop-color="rgb(100%, 8.700562%, 48.484802%)" offset="0.898438"/><stop stop-opacity="1" stop-color="rgb(100%, 8.425903%, 48.733521%)" offset="0.90625"/><stop stop-opacity="1" stop-color="rgb(100%, 8.152771%, 48.982239%)" offset="0.914063"/><stop stop-opacity="1" stop-color="rgb(100%, 7.879639%, 49.230957%)" offset="0.921875"/><stop stop-opacity="1" stop-color="rgb(100%, 7.606506%, 49.479675%)" offset="0.929688"/><stop stop-opacity="1" stop-color="rgb(100%, 7.333374%, 49.728394%)" offset="0.9375"/><stop stop-opacity="1" stop-color="rgb(100%, 7.060242%, 49.977112%)" offset="0.945312"/><stop stop-opacity="1" stop-color="rgb(100%, 6.787109%, 50.22583%)" offset="0.953125"/><stop stop-opacity="1" stop-color="rgb(100%, 6.513977%, 50.474548%)" offset="0.960938"/><stop stop-opacity="1" stop-color="rgb(100%, 6.239319%, 50.723267%)" offset="0.96875"/><stop stop-opacity="1" stop-color="rgb(100%, 5.966187%, 50.971985%)" offset="0.976563"/><stop stop-opacity="1" stop-color="rgb(100%, 5.693054%, 51.220703%)" offset="0.984375"/><stop stop-opacity="1" stop-color="rgb(100%, 5.528259%, 51.371765%)" offset="1"/></linearGradient><clipPath id="d23400dbaa"><path d="M 17.167969 32.847656 L 34.851562 32.847656 L 34.851562 49.996094 L 17.167969 49.996094 Z M 17.167969 32.847656 " clip-rule="nonzero"/></clipPath><clipPath id="c5a1b5170f"><path d="M 17.167969 38 L 22 38 L 22 45 L 17.167969 45 Z M 17.167969 38 " clip-rule="nonzero"/></clipPath><clipPath id="e8e5f2b7ae"><path d="M 30 37 L 34.851562 37 L 34.851562 45 L 30 45 Z M 30 37 " clip-rule="nonzero"/></clipPath><clipPath id="4ce000edac"><path d="M 26 32.847656 L 34.851562 32.847656 L 34.851562 42 L 26 42 Z M 26 32.847656 " clip-rule="nonzero"/></clipPath><clipPath id="1ba7f1ea65"><path d="M 17.167969 32.847656 L 27 32.847656 L 27 42 L 17.167969 42 Z M 17.167969 32.847656 " clip-rule="nonzero"/></clipPath></defs><g clip-path="url(#0985542429)"><path fill="#ffffff" d="M 0.496094 0 L 164.503906 0 L 164.503906 82.003906 L 0.496094 82.003906 Z M 0.496094 0 " fill-opacity="1" fill-rule="nonzero"/><path fill="#ffffff" d="M 0.496094 0 L 164.503906 0 L 164.503906 82.003906 L 0.496094 82.003906 Z M 0.496094 0 " fill-opacity="1" fill-rule="nonzero"/></g><path fill="#131313" d="M 55.070312 40.621094 L 55.070312 46.144531 L 57.234375 46.144531 L 57.234375 40.648438 C 57.234375 39.160156 58.035156 38.164062 59.382812 38.164062 C 60.878906 38.164062 61.464844 39.199219 61.464844 40.59375 L 61.464844 46.144531 L 63.640625 46.144531 L 63.640625 40.070312 C 63.640625 37.839844 62.5625 36.082031 60.085938 36.082031 C 58.597656 36.082031 57.644531 36.640625 56.699219 37.695312 C 56.148438 36.714844 55.175781 36.082031 53.695312 36.082031 C 52.921875 36.082031 51.71875 36.371094 50.785156 37.632812 L 50.785156 36.308594 L 48.664062 36.308594 L 48.664062 46.144531 L 50.835938 46.144531 L 50.835938 40.664062 C 50.835938 39.179688 51.640625 38.164062 52.984375 38.164062 C 54.480469 38.164062 55.070312 39.226562 55.070312 40.621094 Z M 67.957031 41.816406 L 67.957031 36.308594 L 65.785156 36.308594 L 65.785156 42.355469 C 65.785156 44.589844 66.996094 46.351562 69.4375 46.351562 C 70.203125 46.351562 71.476562 46.09375 72.414062 44.824219 L 72.414062 46.144531 L 74.53125 46.144531 L 74.53125 36.308594 L 72.359375 36.308594 L 72.359375 41.78125 C 72.359375 43.265625 71.484375 44.273438 70.105469 44.273438 C 68.609375 44.273438 67.957031 43.210938 67.957031 41.816406 Z M 80.070312 46.316406 C 82.492188 46.316406 83.625 44.769531 83.625 43.246094 C 83.625 41.84375 82.644531 40.675781 80.863281 40.285156 L 79.527344 40 C 78.984375 39.882812 78.546875 39.558594 78.546875 38.980469 C 78.546875 38.316406 79.195312 37.867188 79.882812 37.867188 C 81.03125 37.867188 81.503906 38.605469 81.648438 39.242188 L 83.484375 38.722656 C 83.3125 37.777344 82.441406 36.09375 79.882812 36.09375 C 77.894531 36.09375 76.445312 37.542969 76.445312 39.171875 C 76.445312 40.457031 77.246094 41.574219 79.019531 41.996094 L 80.265625 42.292969 C 81.085938 42.492188 81.425781 42.84375 81.425781 43.375 C 81.425781 44.058594 80.933594 44.527344 80.035156 44.527344 C 78.921875 44.527344 78.261719 43.796875 78.082031 42.960938 L 76.222656 43.453125 C 76.347656 44.554688 77.425781 46.316406 80.070312 46.316406 Z M 85.039062 33.113281 C 85.039062 32.3125 85.679688 31.65625 86.464844 31.65625 C 87.257812 31.65625 87.898438 32.3125 87.898438 33.113281 C 87.898438 33.914062 87.257812 34.554688 86.464844 34.554688 C 85.679688 34.554688 85.039062 33.914062 85.039062 33.113281 Z M 85.386719 46.144531 L 85.386719 36.308594 L 87.558594 36.308594 L 87.558594 46.144531 Z M 91.199219 46.144531 L 93.648438 42.71875 L 96.109375 46.144531 L 98.601562 46.144531 L 94.914062 41.132812 L 98.488281 36.308594 L 96.039062 36.308594 L 93.675781 39.566406 L 91.34375 36.308594 L 88.855469 36.308594 L 92.417969 41.167969 L 88.722656 46.144531 Z M 106.179688 40.621094 L 106.179688 46.144531 L 108.347656 46.144531 L 108.347656 40.648438 C 108.347656 39.160156 109.148438 38.164062 110.492188 38.164062 C 111.988281 38.164062 112.578125 39.199219 112.578125 40.59375 L 112.578125 46.144531 L 114.753906 46.144531 L 114.753906 40.070312 C 114.753906 37.839844 113.675781 36.082031 111.195312 36.082031 C 109.710938 36.082031 108.757812 36.640625 107.8125 37.695312 C 107.257812 36.714844 106.289062 36.082031 104.808594 36.082031 C 104.035156 36.082031 102.832031 36.371094 101.894531 37.632812 L 101.894531 36.308594 L 99.773438 36.308594 L 99.773438 46.144531 L 101.949219 46.144531 L 101.949219 40.664062 C 101.949219 39.179688 102.75 38.164062 104.097656 38.164062 C 105.59375 38.164062 106.179688 39.226562 106.179688 40.621094 Z M 116.34375 41.214844 C 116.34375 43.859375 118.320312 46.300781 121.136719 46.300781 C 121.910156 46.300781 123.570312 45.910156 124.371094 44.652344 L 124.371094 46.144531 L 126.519531 46.144531 L 126.519531 36.308594 L 124.371094 36.308594 L 124.371094 37.738281 C 123.570312 36.523438 122.046875 36.109375 121.191406 36.109375 C 118.144531 36.109375 116.34375 38.730469 116.34375 41.214844 Z M 124.378906 41.214844 C 124.378906 42.898438 123.222656 44.308594 121.457031 44.308594 C 119.703125 44.308594 118.535156 42.90625 118.535156 41.214844 C 118.535156 39.503906 119.691406 38.101562 121.457031 38.101562 C 123.222656 38.101562 124.378906 39.503906 124.378906 41.214844 Z M 134.382812 38.28125 L 134.382812 36.308594 L 131.902344 36.308594 L 131.902344 33.257812 L 129.738281 33.257812 L 129.738281 36.308594 L 127.851562 36.308594 L 127.851562 38.28125 L 129.738281 38.28125 L 129.738281 43.09375 C 129.738281 45.488281 130.816406 46.234375 132.730469 46.234375 C 133 46.234375 133.695312 46.21875 134.292969 46.039062 L 134.292969 44.175781 C 133.871094 44.230469 133.605469 44.246094 133.410156 44.246094 C 132.324219 44.246094 131.902344 43.824219 131.902344 42.976562 L 131.902344 38.28125 Z M 140.355469 46.316406 C 143.011719 46.316406 144.515625 44.589844 144.953125 43.09375 L 142.964844 42.445312 C 142.679688 43.203125 142.066406 44.320312 140.398438 44.320312 C 138.742188 44.320312 137.511719 43.003906 137.511719 41.167969 C 137.511719 39.304688 138.796875 38.089844 140.382812 38.089844 C 141.996094 38.089844 142.707031 39.160156 142.929688 39.925781 L 144.898438 39.277344 C 144.488281 37.613281 142.804688 36.101562 140.390625 36.101562 C 137.484375 36.101562 135.285156 38.398438 135.285156 41.203125 C 135.285156 44.101562 137.484375 46.316406 140.355469 46.316406 Z M 153.082031 40.636719 L 153.082031 46.144531 L 155.257812 46.144531 L 155.257812 40.089844 C 155.257812 37.847656 154.082031 36.101562 151.605469 36.101562 C 150.835938 36.101562 149.617188 36.355469 148.683594 37.550781 L 148.683594 31.132812 L 146.507812 31.132812 L 146.507812 46.144531 L 148.683594 46.144531 L 148.683594 40.664062 C 148.683594 39.179688 149.554688 38.179688 150.933594 38.179688 C 152.433594 38.179688 153.082031 39.234375 153.082031 40.636719 Z M 153.082031 40.636719 " fill-opacity="1" fill-rule="evenodd"/><g clip-path="url(#f5d761d654)"><g clip-path="url(#2bc73c1704)"><path fill="url(#d811d7cff7)" d="M 9.441406 24.394531 L 9.441406 57.941406 L 42.648438 57.941406 L 42.648438 24.394531 Z M 9.441406 24.394531 " fill-rule="nonzero"/></g></g><g clip-path="url(#d23400dbaa)"><path fill="#ffffff" d="M 31.984375 33.289062 C 31.984375 33.289062 28.035156 36.367188 26.0625 37.90625 C 26.042969 37.921875 26.011719 37.949219 26.011719 37.949219 L 19.980469 33.328125 C 19.648438 33.066406 19.261719 32.949219 18.882812 32.949219 C 18.003906 32.949219 17.167969 33.582031 17.167969 34.515625 L 17.167969 48.433594 C 17.167969 49.363281 18 49.996094 18.878906 49.996094 C 19.257812 49.996094 19.644531 49.878906 19.976562 49.617188 L 26.011719 44.957031 C 29.011719 47.3125 31.984375 49.617188 31.984375 49.617188 C 32.316406 49.878906 32.703125 49.996094 33.082031 49.996094 C 33.960938 49.996094 34.851562 49.363281 34.851562 48.433594 L 34.851562 34.441406 C 34.851562 33.511719 33.960938 32.910156 33.082031 32.910156 C 32.703125 32.910156 32.316406 33.027344 31.984375 33.289062 Z M 31.984375 33.289062 " fill-opacity="0.7" fill-rule="evenodd"/></g><path fill="#ffffff" d="M 21.585938 41.460938 L 26.011719 44.957031 L 30.40625 41.457031 L 26.011719 37.949219 Z M 21.585938 41.460938 " fill-opacity="0.6" fill-rule="evenodd"/><g clip-path="url(#c5a1b5170f)"><path fill="#ffffff" d="M 17.171875 38.003906 L 17.171875 44.914062 L 21.585938 41.460938 Z M 17.171875 38.003906 " fill-opacity="0.6" fill-rule="evenodd"/></g><g clip-path="url(#e8e5f2b7ae)"><path fill="#ffffff" d="M 30.40625 41.457031 L 34.851562 44.957031 L 34.851562 37.949219 Z M 30.40625 41.457031 " fill-opacity="0.6" fill-rule="evenodd"/></g><g clip-path="url(#4ce000edac)"><path fill="#ffffff" d="M 31.90625 33.347656 L 26.011719 37.949219 L 30.40625 41.457031 L 34.851562 37.949219 L 34.851562 34.441406 C 34.851562 33.109375 33.167969 32.253906 31.90625 33.347656 Z M 31.90625 33.347656 " fill-opacity="1" fill-rule="evenodd"/></g><g clip-path="url(#1ba7f1ea65)"><path fill="#ffffff" d="M 19.984375 33.300781 C 18.878906 32.433594 17.171875 33.152344 17.171875 34.484375 L 17.171875 38.003906 L 21.585938 41.460938 L 26.011719 37.949219 Z M 19.984375 33.300781 " fill-opacity="1" fill-rule="evenodd"/></g></svg>